# xmcd CD database file
#
# Track frame offsets:
#	150
#	5717
#	23304
#	46858
#	77645
#	83090
#	101757
#	129370
#	134261
#	155607
#	168907
#	195333
#	222403
#	255060
#
# Disc length: 3904 seconds
#
# Revision: 0
# Processed by: cddbd v1.4PL0 Copyright (c) Steve Scherf et al.
# Submitted via: NeoAudio 9.9.9
#
DISCID=a00f3e0e
DTITLE=Gov't Mule - Live at Scholz Beer Garden Austin, TX - 3-17-2000
DYEAR=2000
DGENRE=Blues
TTITLE0=Crowd Noise
TTITLE1=Bad Little Doggie
TTITLE2=Lay Your Burden Down
TTITLE3=Blind Man
TTITLE4=Crowd Noise
TTITLE5=She Said, She Said
TTITLE6=Tomorrow Never Knows Jam
TTITLE7=Crowd Noise
TTITLE8=Mule -->
TTITLE9=I've Been Workin
TTITLE10=Mule
TTITLE11=Crowd Noise
TTITLE12=Encore - Is It My Body w/ Audley Freed
TTITLE13=Encroe - End of the Line w/ Audley Freed
EXTD=YEAR: 2000
EXTT0=
EXTT1=
EXTT2=
EXTT3=
EXTT4=
EXTT5=
EXTT6=
EXTT7=
EXTT8=
EXTT9=
EXTT10=
EXTT11=
EXTT12=
EXTT13=
PLAYORDER=
